<svg width="1058" height="512" viewBox="0 0 1058 512" fill="none" xmlns="http://www.w3.org/2000/svg">
<path d="M4 144.352C82.9967 70.8559 200.309 40.9358 304.927 67.6027C320.352 71.5344 336.552 77.3599 345.733 90.3464C356.578 105.686 354.35 127.336 345.198 143.737C336.045 160.139 321.153 172.443 306.546 184.269C270.33 213.593 231.898 245.054 217.598 289.367C202.785 335.275 217.696 386.607 245.19 426.263C267.249 458.078 296.583 483.808 327.033 508" stroke="white" stroke-width="8" stroke-miterlimit="10" stroke-linecap="round" stroke-dasharray="20 20 1 1 1 20"/>
<path d="M518.292 466.67C479.741 415.54 484.636 336.531 529.204 290.55C546.052 273.167 568.654 258.513 574.184 234.944C579.002 214.408 569.147 193.687 564.546 173.102C556.273 136.08 565.986 95.4652 590.115 66.1934C609.111 43.1485 636.712 27.5311 666.1 22.4438" stroke="white" stroke-width="8" stroke-miterlimit="10" stroke-linecap="round" stroke-dasharray="20 20 1 1 1 20"/>
<path d="M953.038 18.0001C1009.7 43.6912 1042.36 107.637 1044.17 169.826C1045.74 223.997 1027.39 276.702 1001.49 324.658" stroke="white" stroke-width="8" stroke-miterlimit="10" stroke-linecap="round" stroke-dasharray="20 20 1 1 1 20"/>
</svg>
