<svg width="696" height="374" viewBox="0 0 696 374" fill="none" xmlns="http://www.w3.org/2000/svg">
<path d="M339.335 112.296C147.223 136.145 -4.65553 193.816 0.109332 241.109C4.87419 288.376 164.481 307.378 356.582 283.522C548.708 259.672 700.579 202.001 695.818 154.723C691.05 107.438 531.45 88.4537 339.335 112.296ZM352.205 270.896C216.808 287.704 70.3703 280.415 65.681 233.816C60.9881 187.225 202.352 144.215 337.738 127.393C473.139 110.599 619.555 117.874 624.259 164.479C628.959 211.081 487.596 254.091 352.205 270.896ZM341.651 135.3C201.161 152.742 90.0914 194.913 93.576 229.501C97.0607 264.067 213.78 277.962 354.262 260.517C494.763 243.072 605.829 200.901 602.344 166.328C598.863 131.751 482.144 117.866 341.651 135.3ZM351.065 251.286C252.05 263.578 144.961 258.248 141.53 224.168C138.1 190.094 241.474 158.643 340.486 146.34C439.505 134.06 546.579 139.375 550.013 173.462C553.455 207.543 450.074 238.994 351.065 251.286Z" fill="#FFF4E9"/>
<path d="M502.336 248.722C504.57 248.722 506.382 247.653 506.382 246.334C506.382 245.015 504.57 243.946 502.336 243.946C500.102 243.946 498.29 245.015 498.29 246.334C498.29 247.653 500.102 248.722 502.336 248.722Z" fill="#DB8231"/>
<path d="M536.463 186.998C536.463 290.275 452.742 373.996 349.458 373.996C246.185 373.996 162.46 290.275 162.46 186.998C162.46 83.7212 246.181 0 349.458 0C452.742 0 536.463 83.7212 536.463 186.998Z" fill="#FED09E"/>
<path d="M320.933 323.507C302.173 318.792 284.922 321.435 266.539 326.25C252.762 329.857 237.212 322.093 222.296 324.053C255.668 355.03 300.338 374 349.458 374C385.574 374 419.273 363.736 447.858 346.011C445.604 345.321 443.306 344.63 440.911 343.972C422.585 338.916 401.846 338.733 383.035 335.748C362.192 332.432 341.41 328.645 320.933 323.507Z" fill="#DB8231"/>
<path d="M466.447 208.877C457.554 205.817 449.218 201.609 440.163 198.916C429.432 195.726 417.119 196.564 406.057 196.046C382.618 194.956 361.872 187.645 339.123 183.549C321.811 180.435 304.345 184.182 287.626 188.577C276.511 191.501 265.744 194.345 254.197 194.978C242.696 195.611 231.721 194.169 220.195 196.183C201.194 199.495 182.443 202.781 163.373 205.403C163.959 211.383 164.84 217.277 165.977 223.078C168.544 222.798 171.094 222.528 173.597 222.244C192.156 220.158 210.159 215.501 228.628 213.027C248.443 210.373 266.74 212.639 286.504 207.503C310.451 201.286 330.01 198.718 354.047 205.669C373.48 211.297 392.439 213.386 412.624 214.321C424.304 214.864 435.024 215.72 446.064 219.795C454.914 223.06 463.196 227.045 472.366 229.432C489.498 233.892 508.173 226.832 524.445 222.15C527.509 221.269 530.523 220.572 533.493 220.025C534.604 213.789 535.402 207.449 535.881 201.016C512.416 205.802 490.397 217.119 466.447 208.877Z" fill="#DB8231"/>
<path d="M477.311 262.265C456.295 257.194 434.614 258.726 413.422 253.458C395.492 248.999 371.513 238.39 352.842 243.27C346.408 244.953 340.816 247.866 335.12 251.221C328.295 255.242 315.554 248.064 306.851 250.193C298.533 252.224 291.161 256.281 283.077 258.985C274.784 261.761 261.238 254.742 252.988 253.116C231.983 248.981 210.126 257.295 190.376 263.592C187.028 264.66 183.684 265.746 180.336 266.828C185.55 277.858 191.811 288.301 198.993 298.017C215.229 291.994 233.034 285.748 248.432 288.783C265.787 292.199 279.79 297.964 297.519 292.03C307.024 288.851 311.886 284.323 322.171 287.912C330.722 290.897 342.057 288.009 349.81 284.047C357.474 280.123 359.617 277.872 368.507 279.426C378.471 281.163 388.271 284.018 398.041 286.614C419.715 292.375 440.515 292.857 462.441 295.925C473.481 297.471 484.061 300.844 494.392 305.141C501.822 296.04 508.417 286.233 514.052 275.822C502.271 270.252 490.192 265.368 477.311 262.265Z" fill="#FFE1C5"/>
<path d="M396.812 35.2526C414.742 34.0982 432.956 31.0991 451.07 30.0527C421.808 11.0687 386.937 0.00341797 349.458 0.00341797C315.464 0.00341797 283.617 9.11958 256.146 24.9749C272.389 27.449 288.705 28.4271 302.101 29.977C326.479 32.7856 366.18 37.2233 396.812 35.2526Z" fill="#F9B673"/>
<path d="M188.496 91.8378C205.351 87.8281 222.878 85.9724 239.758 84.5699C256.484 83.1782 271.282 85.9544 287.763 88.1049C307.009 90.615 325.691 89.9426 344.905 87.4972C352.856 86.4867 360.775 85.2424 368.69 83.9981C380.234 82.1893 387.347 85.4007 398.056 89.2593C414.098 95.0383 432.003 95.7971 448.873 96.1459C467.065 96.5199 484.553 99.1054 502.631 100.691C506.889 101.062 511.039 100.842 515.135 100.281C508.237 87.1412 499.83 74.9287 490.138 63.8635C476.423 62.5401 462.829 60.2925 448.873 60.1882C430.162 60.0444 413.685 57.0632 396.229 50.36C377.673 43.2325 357.6 49.925 338.709 52.3272C301.705 57.0345 266.287 46.0735 229.247 49.5437C226.819 49.7739 224.385 50.0185 221.95 50.2774C208.922 62.4287 197.633 76.4176 188.496 91.8378Z" fill="#DB8231"/>
<path d="M440.724 129.942C419.028 124.199 398.793 118.028 376.163 117.705C353.399 117.37 329.956 117.852 307.243 119.229C296.268 119.898 285.861 122.872 275.36 125.911C263.158 129.442 251.999 129.482 239.327 129.144C216.955 128.554 193.753 129.662 170.659 132.118C169.717 135.193 168.857 138.311 168.073 141.45C192.016 138.76 216.15 137.523 239.327 138.134C258.318 138.638 271.674 136.394 289.823 131.054C312.853 124.278 339.842 127.831 363.63 126.94C406.363 125.346 444.536 144.762 487.024 144.895C502.225 144.945 517.141 144.503 531.896 146.006C531.217 142.939 530.451 139.907 529.62 136.901C523.916 136.232 518.17 135.811 512.362 135.718C487.768 135.311 464.807 136.311 440.724 129.942Z" fill="#FFE1C5"/>
<path d="M489.75 172.387C495.708 172.387 500.538 169.537 500.538 166.022C500.538 162.507 495.708 159.657 489.75 159.657C483.791 159.657 478.961 162.507 478.961 166.022C478.961 169.537 483.791 172.387 489.75 172.387Z" fill="#DB8231"/>
<path d="M223.482 164.594C229.441 164.594 234.271 161.744 234.271 158.229C234.271 154.714 229.441 151.864 223.482 151.864C217.524 151.864 212.694 154.714 212.694 158.229C212.694 161.744 217.524 164.594 223.482 164.594Z" fill="#DB8231"/>
<path d="M450.937 251.8C456.895 251.8 461.725 248.951 461.725 245.435C461.725 241.92 456.895 239.07 450.937 239.07C444.979 239.07 440.148 241.92 440.148 245.435C440.148 248.951 444.979 251.8 450.937 251.8Z" fill="#DB8231"/>
<path d="M322.376 24.3458C328.334 24.3458 333.164 21.4959 333.164 17.9806C333.164 14.4652 328.334 11.6155 322.376 11.6155C316.417 11.6155 311.587 14.4652 311.587 17.9806C311.587 21.4959 316.417 24.3458 322.376 24.3458Z" fill="#DB8231"/>
<path d="M371.15 323.449C374.75 323.449 377.669 321.728 377.669 319.605C377.669 317.482 374.75 315.761 371.15 315.761C367.549 315.761 364.63 317.482 364.63 319.605C364.63 321.728 367.549 323.449 371.15 323.449Z" fill="#DB8231"/>
<path d="M367.554 148.139C371.154 148.139 374.073 146.418 374.073 144.294C374.073 142.171 371.154 140.45 367.554 140.45C363.953 140.45 361.034 142.171 361.034 144.294C361.034 146.418 363.953 148.139 367.554 148.139Z" fill="#DB8231"/>
<path d="M269.556 236.693C273.156 236.693 276.075 234.972 276.075 232.849C276.075 230.726 273.156 229.005 269.556 229.005C265.955 229.005 263.036 230.726 263.036 232.849C263.036 234.972 265.955 236.693 269.556 236.693Z" fill="#DB8231"/>
<path d="M443.072 52.2838C445.306 52.2838 447.118 51.2148 447.118 49.896C447.118 48.5772 445.306 47.5082 443.072 47.5082C440.838 47.5082 439.026 48.5772 439.026 49.896C439.026 51.2148 440.838 52.2838 443.072 52.2838Z" fill="#DB8231"/>
<path d="M274.576 40.7478C276.81 40.7478 278.622 39.6788 278.622 38.36C278.622 37.0412 276.81 35.9722 274.576 35.9722C272.342 35.9722 270.53 37.0412 270.53 38.36C270.53 39.6788 272.342 40.7478 274.576 40.7478Z" fill="#DB8231"/>
<path d="M300.95 158.819C303.184 158.819 304.995 157.75 304.995 156.431C304.995 155.112 303.184 154.043 300.95 154.043C298.715 154.043 296.904 155.112 296.904 156.431C296.904 157.75 298.715 158.819 300.95 158.819Z" fill="#DB8231"/>
<path d="M424.268 175.609C424.268 176.929 422.463 177.997 420.222 177.997C417.989 177.997 416.177 176.929 416.177 175.609C416.177 174.289 417.989 173.221 420.222 173.221C422.463 173.221 424.268 174.289 424.268 175.609Z" fill="#DB8231"/>
<path d="M463.973 110.872C466.207 110.872 468.018 109.803 468.018 108.484C468.018 107.166 466.207 106.096 463.973 106.096C461.738 106.096 459.927 107.166 459.927 108.484C459.927 109.803 461.738 110.872 463.973 110.872Z" fill="#DB8231"/>
<path d="M355.338 225.358C355.338 226.678 353.532 227.746 351.292 227.746C349.059 227.746 347.25 226.678 347.25 225.358C347.25 224.039 349.059 222.97 351.292 222.97C353.532 222.97 355.338 224.039 355.338 225.358Z" fill="#DB8231"/>
<path d="M320.128 311.654C322.362 311.654 324.174 310.585 324.174 309.266C324.174 307.947 322.362 306.878 320.128 306.878C317.894 306.878 316.082 307.947 316.082 309.266C316.082 310.585 317.894 311.654 320.128 311.654Z" fill="#DB8231"/>
<path d="M433.258 317.656C433.258 318.976 431.453 320.044 429.213 320.044C426.979 320.044 425.167 318.976 425.167 317.656C425.167 316.336 426.979 315.268 429.213 315.268C431.453 315.268 433.258 316.336 433.258 317.656Z" fill="#DB8231"/>
<path d="M213.442 239.731C215.676 239.731 217.487 238.662 217.487 237.344C217.487 236.025 215.676 234.956 213.442 234.956C211.208 234.956 209.396 236.025 209.396 237.344C209.396 238.662 211.208 239.731 213.442 239.731Z" fill="#DB8231"/>
<path d="M227.679 105.485C227.679 106.805 225.87 107.873 223.633 107.873C221.396 107.873 219.588 106.805 219.588 105.485C219.588 104.165 221.396 103.097 223.633 103.097C225.87 103.097 227.679 104.165 227.679 105.485Z" fill="#DB8231"/>
<path d="M378.115 101.281C378.115 102.601 376.303 103.669 374.07 103.669C371.829 103.669 370.024 102.601 370.024 101.281C370.024 99.9614 371.829 98.8933 374.07 98.8933C376.303 98.8933 378.115 99.9614 378.115 101.281Z" fill="#DB8231"/>
<path opacity="0.2" d="M499.1 74.8389C438.343 160.315 325.652 294.684 208.753 310.09C243.031 349.241 293.34 374 349.462 374C452.746 374 536.467 290.279 536.467 187.002C536.463 144.916 522.557 106.086 499.1 74.8389Z" fill="#212A3C"/>
<path opacity="0.2" d="M536.359 182.841C474.768 257.349 370.981 349.233 239.74 338.384C270.563 360.766 308.459 373.996 349.461 373.996C452.746 373.996 536.467 290.275 536.467 186.998C536.463 185.603 536.388 184.229 536.359 182.841Z" fill="#212A3C"/>
<path d="M695.818 154.719C692.79 124.706 627.373 106.1 530.868 102.608C532.91 109.415 535.568 116.212 537.708 123.023C587.676 129.032 622.018 142.298 624.259 164.479C628.959 211.081 487.592 254.091 352.205 270.896C216.808 287.704 70.3703 280.415 65.6809 233.816C63.3363 210.517 97.521 188.109 149.222 169.427C149.341 162.785 150.15 156.251 151.013 149.699C57.3559 176.796 -2.92224 211.053 0.109286 241.113C4.87414 288.38 164.481 307.382 356.582 283.525C548.708 259.672 700.579 202.001 695.818 154.719Z" fill="#FFF4E9"/>
<path d="M540.405 133.743C540.48 134.171 540.602 134.603 540.671 135.031C542.027 143.629 542.49 151.659 541.584 159.848C546.529 163.746 549.492 168.263 550.013 173.459C553.455 207.539 450.074 238.991 351.065 251.283C252.05 263.574 144.961 258.245 141.53 224.164C140.728 216.195 145.828 208.374 155.289 200.901C152.783 194.655 150.913 188.167 149.938 181.493C113.369 197.089 92.0225 214.052 93.576 229.501C97.0607 264.067 213.78 277.962 354.262 260.517C494.763 243.073 605.829 200.901 602.344 166.328C600.823 151.224 577.686 140.065 540.405 133.743Z" fill="#FFF4E9"/>
<path opacity="0.5" d="M411.527 40.5824C436.516 83.1173 408.057 146.222 347.933 181.54C287.828 216.861 218.843 211.006 193.854 168.482C168.864 125.951 197.331 62.8388 257.44 27.525C317.542 -7.79253 386.53 -1.9489 411.527 40.5824Z" fill="url(#paint0_linear_2_143)"/>
<path opacity="0.4" d="M356.301 35.0659C371.218 60.4689 351.576 99.7169 312.418 122.725C273.26 145.729 229.419 143.791 214.499 118.388C199.568 92.985 219.206 53.7406 258.372 30.7326C297.526 7.72106 341.37 9.66291 356.301 35.0659Z" fill="white"/>
<defs>
<linearGradient id="paint0_linear_2_143" x1="245.851" y1="34.3424" x2="359.53" y2="174.724" gradientUnits="userSpaceOnUse">
<stop stop-color="white"/>
<stop offset="1" stop-color="white" stop-opacity="0"/>
</linearGradient>
</defs>
</svg>
