<svg width="1689" height="874" viewBox="0 0 1689 874" fill="none" xmlns="http://www.w3.org/2000/svg">
<path d="M44 10H1645C1663.78 10 1679 25.2223 1679 44V716C1679 734.778 1663.78 750 1645 750H938.135C926.43 750 914.985 753.905 905.679 760.803C863.02 792.422 827.832 816.843 799.286 834.282C770.529 851.849 749.296 861.831 734.364 865.305C726.952 867.029 721.925 866.944 718.629 866.052C715.698 865.26 713.712 863.739 712.157 861.098C710.413 858.134 709.01 853.357 708.621 845.996C708.235 838.71 708.873 829.558 710.621 818.39C715.922 784.519 692.1 750 655.714 750H44C25.2223 750 10 734.778 10 716V44C10 25.2223 25.2223 10 44 10Z" fill="white" stroke="black" stroke-width="20"/>
</svg>
