<svg width="374" height="374" viewBox="0 0 374 374" fill="none" xmlns="http://www.w3.org/2000/svg">
<path d="M374.003 187.002C374.003 290.277 290.28 374 187.005 374C83.7266 374 0.00323486 290.277 0.00323486 187.002C0.00323486 83.7266 83.7266 0 187.005 0C290.28 0 374.003 83.7266 374.003 187.002Z" fill="#F7941E"/>
<path d="M264.576 117.739C249.337 110.812 246.57 105.272 229.945 106.657C203.623 108.045 181.462 126.048 153.758 123.275C124.67 120.509 102.509 108.042 72.0354 114.963C52.6377 120.509 51.2592 120.509 30.4766 117.736C25.5046 117.024 19.8978 116.495 13.9352 116.143C4.97525 137.996 0 161.914 0 186.998C0 290.273 83.7234 373.997 187.002 373.997C290.277 373.997 374 290.273 374 186.998C374 164.241 369.929 142.445 362.485 122.272C332.72 136.784 297.159 134.031 264.576 117.739Z" fill="#F15A29"/>
<path d="M210.554 249.333C191.163 260.412 171.768 257.646 149.604 261.804C103.89 270.116 87.2721 234.093 47.1014 227.169C31.8647 224.403 20.7825 224.403 5.54583 218.857C4.58412 218.62 3.59996 218.341 2.61902 218.062C17.4198 306.549 94.315 374 187.005 374C290.28 374 374.003 290.277 374.003 187.002C374.003 186.152 373.949 185.325 373.942 184.476C343.488 191.839 309.004 210.881 285.353 221.633C259.037 234.093 236.869 235.482 210.554 249.333Z" fill="#EA3232"/>
<path d="M59.9178 49.8679C63.6525 46.4026 67.541 43.1071 71.5545 39.9495C76.283 40.0489 81.7295 40.1707 81.7295 40.1707C81.7295 40.1707 98.008 40.1707 99.3897 40.1707C100.778 40.1707 144.064 39.475 144.064 39.475C144.064 39.475 152.374 38.4364 153.762 38.4364C154.778 38.4364 165.722 38.8147 171.448 39.0166C173.502 39.0807 174.887 39.1288 174.887 39.1288C174.887 39.1288 168.998 39.475 163.805 40.5137C158.609 41.5523 152.374 42.9404 150.646 43.2866C148.918 43.6296 146.145 43.2866 143.029 43.6296C139.913 43.9726 135.066 44.6683 131.254 45.7069C127.446 46.7456 121.903 46.3994 118.787 47.095C115.668 47.7875 112.203 48.1305 105.628 48.4767C99.0499 48.8261 86.2367 49.8679 82.4283 49.8679C78.6199 49.8679 71.0032 49.8679 69.2721 49.8679C67.6276 49.8679 64.1013 49.8679 59.9178 49.8679Z" fill="#F15A29"/>
<path d="M296.085 332.444C285.853 332.182 262.659 329.322 241.511 329.322C220.36 329.322 195.801 331.399 195.801 331.399C195.801 331.399 216.953 334.518 226.845 334.518C236.738 334.518 243.22 334.518 247.997 334.518C252.77 334.518 259.592 336.336 266.413 336.596C273.232 336.859 289.267 336.339 289.267 336.339C289.267 336.339 294.018 336.057 300.41 335.66C302.061 334.4 303.699 333.124 305.305 331.81C301.881 332.242 298.669 332.505 296.085 332.444Z" fill="#F15A29"/>
<path d="M307.405 92.6419C305.641 92.8118 299.297 93.5555 294.024 94.0556C288.751 94.5653 282.859 94.3152 282.859 94.3152C282.859 94.3152 284.231 94.5011 286.266 94.7736C291.943 95.5558 302.788 97.0401 303.808 97.1395C305.189 97.2805 313.56 97.0882 313.56 97.0882C313.56 97.0882 340.952 99.438 352.765 100.464C351.239 97.5466 349.646 94.6614 347.973 91.8372C344.27 91.7378 341.779 91.802 339.481 92.0744C336.307 92.4463 330.838 91.5423 326.934 92.1898C323.036 92.831 318.15 93.0329 315.012 93.0618C311.873 93.0971 309.155 92.4688 307.405 92.6419Z" fill="#F15A29"/>
<path d="M128.741 69.6919C128.741 69.6919 144.843 72.811 152.374 72.811C159.91 72.811 164.844 72.811 168.476 72.811C172.114 72.811 177.304 74.6255 182.501 74.882C187.697 75.1448 199.905 74.6255 199.905 74.6255C199.905 74.6255 223.537 72.8111 231.59 71.7692C239.642 70.7306 244.579 71.2499 251.327 70.7305C258.082 70.2112 259.12 70.4741 266.131 70.4741C273.142 70.4741 275.482 71.5096 281.714 71.5096C287.949 71.5096 289.248 71.7692 295.999 71.7692C302.75 71.7692 304.571 70.987 306.645 70.987C308.722 70.987 311.322 70.987 313.399 70.4741C315.473 69.9484 309.501 68.6533 309.501 68.6533C309.501 68.6533 302.227 68.6533 301.189 68.6533C300.153 68.6533 299.115 68.6533 297.034 68.3936C294.957 68.1339 290.802 68.1339 290.802 68.1339C290.802 68.1339 263.009 66.0566 262.233 66.0566C261.454 66.0566 234.443 66.0566 231.324 66.0566C228.208 66.0566 212.884 70.9902 205.091 70.7338C197.301 70.4773 179.638 67.6178 163.536 67.6178C147.44 67.6146 128.741 69.6919 128.741 69.6919Z" fill="#F15A29"/>
<path d="M372.484 163.296C366.524 162.792 357.6 162.042 357.228 162.052C356.67 162.077 337.33 162.77 335.096 162.843C332.861 162.92 322.096 169.059 316.502 168.95C310.912 168.851 298.143 165.972 286.616 166.386C275.082 166.796 261.781 169.688 261.781 169.688C261.781 169.688 273.44 172.903 278.829 172.711C284.224 172.518 287.763 172.387 290.36 172.3C292.969 172.204 296.762 174.192 300.496 174.365C304.225 174.538 312.947 173.618 312.947 173.618C312.947 173.618 329.793 170.893 335.516 169.489C341.244 168.069 344.796 168.546 349.611 167.771C354.423 166.998 355.173 167.274 360.196 167.094C365.22 166.912 366.941 168.066 371.403 167.905C371.99 167.883 372.513 167.873 372.997 167.864C372.846 166.335 372.676 164.812 372.484 163.296Z" fill="#F7941E"/>
<path d="M46.1493 160.593C46.1493 160.593 62.2516 163.712 69.7882 163.712C77.3184 163.712 82.252 163.712 85.8872 163.712C89.5225 163.712 94.719 165.53 99.9122 165.789C105.105 166.052 117.313 165.533 117.313 165.533C117.313 165.533 140.948 163.715 149.001 162.673C157.054 161.635 161.987 162.154 168.739 161.635C175.49 161.112 176.532 161.375 183.543 161.375C190.553 161.375 192.89 162.414 199.122 162.414C205.357 162.414 206.659 162.673 213.41 162.673C220.158 162.673 221.979 161.894 224.056 161.894C226.134 161.894 228.733 161.895 230.808 161.375C232.885 160.856 226.909 159.557 226.909 159.557C226.909 159.557 219.636 159.557 218.6 159.557C217.562 159.557 216.523 159.558 214.446 159.298C212.365 159.038 208.214 159.038 208.214 159.038C208.214 159.038 180.423 156.964 179.641 156.964C178.866 156.964 151.851 156.964 148.735 156.964C145.616 156.964 130.296 161.898 122.503 161.638C114.71 161.378 97.0527 158.519 80.9473 158.519C64.8514 158.516 46.1493 160.593 46.1493 160.593Z" fill="#F7941E"/>
<path d="M201.886 221.63C206.204 221.63 207.64 222.665 211.474 222.665C215.314 222.665 216.113 222.925 220.27 222.925C224.422 222.925 225.544 222.146 226.823 222.146C228.099 222.146 229.698 222.146 230.984 221.63C232.263 221.11 228.583 219.812 228.583 219.812C228.583 219.812 224.108 219.812 223.466 219.812C222.825 219.812 222.191 219.812 220.908 219.549C219.629 219.293 217.071 219.293 217.071 219.293C217.071 219.293 199.965 217.215 199.488 217.215C199.01 217.215 182.382 217.215 180.462 217.215C178.542 217.215 169.111 222.149 164.318 221.889C159.519 221.633 148.645 218.774 138.736 218.774C128.821 218.774 117.313 220.848 117.313 220.848C117.313 220.848 127.225 223.97 131.86 223.97C136.499 223.97 139.535 223.97 141.772 223.97C144.01 223.97 147.212 225.781 150.408 226.044C153.608 226.301 161.116 225.781 161.116 225.781C161.116 225.781 175.663 223.97 180.619 222.925C185.581 221.886 188.614 222.405 192.769 221.886C196.926 221.367 197.568 221.63 201.886 221.63Z" fill="#F7941E"/>
<path d="M224.518 295.736C233.388 295.214 234.747 295.473 243.961 295.473C253.171 295.473 256.238 296.512 264.429 296.512C272.616 296.512 274.315 296.772 283.186 296.772C292.053 296.772 294.447 295.992 297.175 295.992C299.9 295.992 303.311 295.993 306.042 295.473C308.773 294.954 300.929 293.656 300.929 293.656C300.929 293.656 291.376 293.656 290.011 293.656C288.642 293.656 287.282 293.656 284.554 293.399C281.82 293.136 276.364 293.136 276.364 293.136C276.364 293.136 239.87 291.062 238.841 291.062C237.822 291.062 202.344 291.062 198.257 291.062C194.16 291.062 174.035 295.996 163.802 295.739C153.566 295.476 130.37 292.617 109.222 292.617C88.0767 292.617 63.5178 294.694 63.5178 294.694C63.5178 294.694 84.6691 297.813 94.5587 297.813C104.455 297.813 110.933 297.813 115.71 297.813C120.48 297.813 127.302 299.631 134.127 299.887C140.948 300.15 156.98 299.631 156.98 299.631C156.98 299.631 188.021 297.813 198.597 296.772C209.169 295.736 215.651 296.255 224.518 295.736Z" fill="#F15A29"/>
<path d="M355.984 247.525C349.435 248.202 345.992 248.724 342.911 249.577C339.834 250.43 334.288 250.366 330.531 251.597C326.777 252.831 321.978 253.767 318.881 254.267C315.781 254.777 313.005 254.575 311.296 255.004C309.578 255.444 303.423 257.143 298.288 258.441C293.146 259.742 287.289 260.387 287.289 260.387C287.289 260.387 288.671 260.364 290.729 260.329C296.451 260.239 307.405 260.057 308.424 260.005C309.809 259.928 318.054 258.466 318.054 258.466C318.054 258.466 352.804 256.139 360.956 255.601C362.129 252.626 363.232 249.616 364.258 246.564C361.184 246.939 358.215 247.291 355.984 247.525Z" fill="#F15A29"/>
<path d="M108.513 338.259C111.645 338.08 114.389 338.58 116.133 338.327C117.883 338.077 124.186 337.038 129.427 336.285C134.672 335.534 140.567 335.515 140.567 335.515C140.567 335.515 139.192 335.393 137.14 335.211C131.44 334.695 120.531 333.71 119.518 333.662C118.127 333.582 109.776 334.162 109.776 334.162C109.776 334.162 81.1011 333.04 69.6985 332.582C73.2472 335.448 76.9049 338.182 80.662 340.789C81.9186 340.692 83.0438 340.555 84.1145 340.375C87.2625 339.856 92.7763 340.513 96.6392 339.686C100.505 338.856 105.375 338.432 108.513 338.259Z" fill="#F15A29"/>
<path opacity="0.2" d="M339.263 78.5077C282.384 160.564 165.536 305.314 46.3353 310.142C80.6075 349.262 130.905 374 187.005 374C290.28 374 374.003 290.277 374.003 187.002C374.003 146.539 361.107 109.109 339.263 78.5077Z" fill="#212A3C"/>
<path opacity="0.2" d="M373.853 181.106C314.611 255.549 207.374 355.381 70.2563 333.031C102.259 358.645 142.83 374 187.005 374C290.28 374 374.003 290.277 374.003 187.002C374.003 185.024 373.917 183.068 373.853 181.106Z" fill="#212A3C"/>
<path opacity="0.3" d="M266.878 51.237C294.585 98.3897 263.028 168.348 196.385 207.502C129.748 246.663 53.2692 240.172 25.5687 193.025C-2.13503 145.876 29.4251 75.9113 96.0589 36.7568C162.689 -2.39127 239.168 4.08425 266.878 51.237Z" fill="url(#paint0_linear_2_120)"/>
<path opacity="0.3" d="M205.652 45.1235C222.194 73.2856 200.414 116.79 157.003 142.298C113.594 167.803 64.9924 165.652 48.451 137.489C31.8967 109.327 53.6699 65.826 97.0879 40.315C140.496 14.8072 189.101 16.9582 205.652 45.1235Z" fill="white"/>
<defs>
<linearGradient id="paint0_linear_2_120" x1="100.629" y1="63.685" x2="196.465" y2="184.315" gradientUnits="userSpaceOnUse">
<stop stop-color="white"/>
<stop offset="1" stop-color="white" stop-opacity="0"/>
</linearGradient>
</defs>
</svg>
